3.0Hz3min_grf.mot
version=1
nRows=22
nColumns 19
inDegrees=yes
endheader
time	1_ground_force_vx	1_ground_force_vy	1_ground_force_vz	1_ground_force_px	1_ground_force_py	1_ground_force_pz	1_ground_torque_x	1_ground_torque_y	1_ground_torque_z	2_ground_force_vx	2_ground_force_vy	2_ground_force_vz	2_ground_force_px	2_ground_force_py	2_ground_force_pz	2_ground_torque_x	2_ground_torque_y	2_ground_torque_z
            3.751500	           -0.044897	           -1.443314	            0.269066	           -0.233013	            0.005581	           -0.255695	            0.026354	            0.037612	           -0.152192	            0.186365	            0.187838	           -0.844128	           -0.232311	            0.006130	           -0.833667	           -0.037775	            0.056581	            0.000218
            3.752000	            0.230176	           -0.902660	            0.316558	           -0.233013	            0.005581	           -0.255695	           -0.107239	            0.083770	           -0.102358	            0.098044	           -1.286189	           -0.708561	           -0.232311	            0.006130	           -0.833667	           -0.150298	           -0.009592	           -0.113071
            3.752500	           -0.043986	           -1.444887	            0.635913	           -0.233013	            0.005581	           -0.255695	           -0.158383	            0.074805	           -0.207969	           -0.090726	           -0.918235	           -0.801023	           -0.232311	            0.006130	           -0.833667	           -0.056400	            0.018500	            0.056642
            3.753000	            0.276571	           -0.182768	            0.594671	           -0.233013	            0.005581	           -0.255695	           -0.081790	            0.074401	           -0.062936	            0.140988	           -0.181800	           -0.516926	           -0.232311	            0.006130	           -0.833667	            0.056255	            0.019378	           -0.075357
            3.753500	            0.047455	           -0.723610	            0.592921	           -0.233013	            0.005581	           -0.255695	           -0.137968	            0.065364	           -0.147782	            0.329635	           -0.548750	           -0.706032	           -0.232311	            0.006130	           -0.833667	           -0.131727	            0.056443	           -0.056292
            3.754000	            0.184252	           -1.082738	            0.270043	           -0.233013	            0.005581	           -0.255695	           -0.048743	           -0.027323	           -0.067331	            0.422670	           -0.364264	           -0.705415	           -0.232311	            0.006130	           -0.833667	           -0.112720	           -0.000340	           -0.018802
            3.754500	            0.092743	           -0.182017	            0.411703	           -0.233013	            0.005581	           -0.255695	           -0.074073	            0.028256	           -0.108568	            0.239258	           -1.469830	           -0.709278	           -0.232311	            0.006130	           -0.833667	           -0.018983	            0.065765	            0.094495
            3.755000	            0.047098	           -1.263620	            0.407179	           -0.233013	            0.005581	           -0.255695	           -0.054569	            0.055888	           -0.091616	            0.140947	           -0.181465	           -0.610782	           -0.232311	            0.006130	           -0.833667	           -0.075295	            0.046858	            0.037901
            3.755500	            0.184528	           -0.722797	            0.409156	           -0.233013	            0.005581	           -0.255695	           -0.186450	            0.074655	           -0.141757	            0.095344	           -0.549261	           -0.799789	           -0.232311	            0.006130	           -0.833667	           -0.112678	           -0.009860	            0.000014
            3.756000	            0.230811	           -1.264175	            0.544291	           -0.233013	            0.005581	           -0.255695	           -0.079008	            0.092624	           -0.008386	            0.049885	           -0.918229	           -0.660299	           -0.232311	            0.006130	           -0.833667	            0.112593	            0.028900	           -0.037647
            3.756500	            0.093040	           -1.804408	            0.404746	           -0.233013	            0.005581	           -0.255695	           -0.016724	            0.083728	           -0.108415	            0.186488	            0.186833	           -0.562560	           -0.232311	            0.006130	           -0.833667	           -0.056382	            0.009182	            0.018908
            3.757000	            0.138964	           -1.624331	            0.451261	           -0.233013	            0.005581	           -0.255695	            0.000223	            0.037134	           -0.012718	            0.373182	            0.371993	           -0.655839	           -0.232311	            0.006130	           -0.833667	           -0.112805	            0.018700	           -0.056435
            3.757500	           -0.044995	           -0.902517	            0.271384	           -0.233013	            0.005581	           -0.255695	           -0.142935	            0.000606	           -0.151950	           -0.041985	           -1.469674	           -1.037655	           -0.232311	            0.006130	           -0.833667	            0.018548	            0.057053	           -0.075206
            3.758000	            0.321928	           -1.263174	            0.314784	           -0.233013	            0.005581	           -0.255695	           -0.163260	            0.046747	           -0.079657	            0.000315	           -0.181303	           -0.798435	           -0.232311	            0.006130	           -0.833667	           -0.169154	            0.027613	            0.037873
            3.758500	            0.093298	           -0.723601	            0.592807	           -0.233013	            0.005581	           -0.255695	           -0.043958	            0.037431	           -0.089786	            0.279421	            0.372157	           -0.796583	           -0.232311	            0.006130	           -0.833667	           -0.075159	            0.009047	            0.037766
            3.759000	            0.184300	           -0.722404	            0.317444	           -0.233013	            0.005581	           -0.255695	           -0.144952	            0.093066	           -0.122983	            0.426034	           -1.285340	           -0.614844	           -0.232311	            0.006130	           -0.833667	            0.037467	            0.037678	            0.075520
            3.759500	            0.047098	           -1.263620	            0.407179	           -0.233013	            0.005581	           -0.255695	           -0.148531	            0.102249	           -0.128780	            0.049782	           -0.917392	           -0.894939	           -0.232311	            0.006130	           -0.833667	           -0.056583	            0.038347	           -0.207193
            3.760000	            0.230470	           -1.263585	            0.406724	           -0.233013	            0.005581	           -0.255695	           -0.092001	            0.055804	           -0.046108	            0.329594	           -0.548416	           -0.799888	           -0.232311	            0.006130	           -0.833667	            0.000145	           -0.037878	            0.018715
            3.760500	            0.000929	           -0.722439	            0.317900	           -0.233013	            0.005581	           -0.255695	           -0.069630	           -0.018328	           -0.037476	            0.284135	           -0.917383	           -0.660398	           -0.232311	            0.006130	           -0.833667	            0.075098	            0.018975	            0.056586
            3.761000	            0.230470	           -1.263585	            0.406724	           -0.233013	            0.005581	           -0.255695	           -0.092220	           -0.017740	           -0.140413	            0.237949	           -1.101701	           -0.661035	           -0.232311	            0.006130	           -0.833667	            0.018581	            0.056784	            0.000194
            3.761500	            0.367870	           -1.803962	            0.312352	           -0.233013	            0.005581	           -0.255695	           -0.031580	           -0.045479	           -0.116001	            0.519652	           -1.284332	           -0.802596	           -0.232311	            0.006130	           -0.833667	           -0.112942	            0.056511	           -0.056300
            3.762000	            0.047113	           -0.723020	            0.455354	           -0.233013	            0.005581	           -0.255695	           -0.113285	            0.074527	           -0.129006	            0.187050	            0.003522	           -0.797857	           -0.232311	            0.006130	           -0.833667	            0.056016	            0.085547	           -0.075121
